<mxfile host="app.diagrams.net" modified="2023-10-05T13:45:54.869Z" agent="Mozilla/5.0 (Windows NT 10.0; Win64; x64) AppleWebKit/537.36 (KHTML, like Gecko) Chrome/117.0.0.0 Safari/537.36 Edg/117.0.2045.47" version="21.6.6" etag="akVnJNMcvwY-cj1gAkJI" type="github">
  <diagram name="Page-1" id="pqnNI6KZFT48bDw9ni3J">
    <mxGraphModel>
      <root>
        <mxCell id="0" />
        <mxCell id="1" parent="0" />
      </root>
    </mxGraphModel>
  </diagram>
</mxfile>
